<svg xmlns="http://www.w3.org/2000/svg" viewBox="150 20 100 220">
  <style>
    .piece{fill:#1a1a2e}
    @media (prefers-color-scheme:dark){ .piece{fill:#ecebe3} }
  </style>
  <g class="piece" transform="translate(0,-10)">
    <path d="M150 232 q0 -11 14 -13 q22 -3 36 -3 q14 0 36 3 q14 2 14 13 q0 9 -14 11 q-22 3 -36 3 q-14 0 -36 -3 q-14 -2 -14 -11 z"/>
    <path d="M170 214 q-3 -6 0 -12 q10 -3 30 -3 q20 0 30 3 q3 6 0 12 q-30 5 -30 5 q0 0 -30 -5 z"/>
    <path d="M200 108 C 218 108 230 120 230 138 C 230 156 220 168 214 182 C 209 194 207 202 208 210 L 192 210 C 193 202 191 194 186 182 C 180 168 170 156 170 138 C 170 120 182 108 200 108 Z"/>
    <ellipse cx="200" cy="108" rx="30" ry="7.5"/>
    <ellipse cx="200" cy="98" rx="21" ry="5"/>
    <path d="M170 94 C 165 87 165 77 168 70 C 173 78 181 82 188 81 C 189 70 193 61 200 54 C 207 61 211 70 212 81 C 219 82 227 78 232 70 C 235 77 235 87 230 94 C 220 89 210 87 200 87 C 190 87 180 89 170 94 Z"/>
    <circle cx="200" cy="46" r="7.5"/>
  </g>
  <circle cx="200" cy="64" r="4" fill="#c9a227"/>
</svg>
